# Blender v2.93.4 OBJ File: ''
# www.blender.org
mtllib thing.mtl
o Cube_Cube.001
v -0.879034 -0.773074 1.120853
v -2.195575 -1.930918 0.448752
v -0.879034 0.773074 1.120853
v -2.195575 1.930918 0.448752
v 0.879034 -0.773074 1.120853
v 2.195575 -1.930918 0.448752
v 0.879034 0.773074 1.120853
v 2.195575 1.930918 0.448752
v -1.508607 -1.326757 -1.120853
v -2.195575 -1.930918 -0.770152
v -1.642628 -1.444623 -1.114115
v -1.771498 -1.557960 -1.094158
v -1.890266 -1.662411 -1.061750
v -1.994367 -1.753963 -1.018135
v -2.079800 -1.829098 -0.964991
v -2.143282 -1.884929 -0.904360
v -2.182375 -1.919309 -0.838571
v -2.195575 1.930918 -0.770152
v -1.508607 1.326757 -1.120853
v -2.182375 1.919309 -0.838571
v -2.143282 1.884929 -0.904360
v -2.079800 1.829098 -0.964991
v -1.994367 1.753963 -1.018135
v -1.890266 1.662411 -1.061750
v -1.771498 1.557960 -1.094158
v -1.642628 1.444623 -1.114115
v 1.508607 -1.326757 -1.120853
v 2.195575 -1.930918 -0.770152
v 1.642628 -1.444623 -1.114115
v 1.771498 -1.557960 -1.094158
v 1.890266 -1.662411 -1.061750
v 1.994367 -1.753963 -1.018135
v 2.079800 -1.829098 -0.964991
v 2.143282 -1.884929 -0.904360
v 2.182375 -1.919309 -0.838571
v 2.195575 1.930918 -0.770152
v 1.508607 1.326757 -1.120853
v 2.182375 1.919309 -0.838571
v 2.143282 1.884929 -0.904360
v 2.079800 1.829098 -0.964991
v 1.994367 1.753963 -1.018135
v 1.890266 1.662411 -1.061750
v 1.771498 1.557960 -1.094158
v 1.642628 1.444623 -1.114115
vt 0.449954 0.824954
vt 0.550046 0.824954
vt 0.550046 0.925046
vt 0.449954 0.925046
vt 0.125000 0.539111
vt 0.375000 0.539111
vt 0.375000 0.675046
vt 0.125000 0.675046
vt 0.625000 0.539111
vt 0.625000 0.675046
vt 0.414111 0.289111
vt 0.585889 0.289111
vt 0.585889 0.460889
vt 0.414111 0.460889
vt 0.625000 1.000000
vt 0.375000 1.000000
vt 0.375000 0.750000
vt 0.625000 0.750000
vt 0.875000 0.539111
vt 0.875000 0.675046
vt 0.406481 0.281481
vt 0.593519 0.281481
vt 0.399144 0.274144
vt 0.600856 0.274144
vt 0.392382 0.267382
vt 0.607618 0.267382
vt 0.386455 0.250000
vt 0.613545 0.250000
vt 0.381591 0.232618
vt 0.618409 0.232618
vt 0.377977 0.225856
vt 0.622023 0.225856
vt 0.375752 0.218519
vt 0.624249 0.218519
vt 0.375000 0.210889
vt 0.625000 0.210889
vt 0.125752 0.531481
vt 0.374249 0.531481
vt 0.127977 0.524144
vt 0.372023 0.524144
vt 0.131591 0.517382
vt 0.368409 0.517382
vt 0.136455 0.500000
vt 0.363545 0.500000
vt 0.375000 0.488545
vt 0.375000 0.261455
vt 0.392382 0.482618
vt 0.399144 0.475856
vt 0.406481 0.468519
vt 0.625752 0.531481
vt 0.874249 0.531481
vt 0.627977 0.524144
vt 0.872023 0.524144
vt 0.631591 0.517382
vt 0.868409 0.517382
vt 0.636455 0.500000
vt 0.863545 0.500000
vt 0.625000 0.261455
vt 0.625000 0.488545
vt 0.607618 0.482618
vt 0.600856 0.475856
vt 0.593519 0.468519
vt 0.375751 0.531481
vt 0.624249 0.531481
vt 0.377977 0.524144
vt 0.622023 0.524144
vt 0.381591 0.517382
vt 0.618409 0.517382
vt 0.386455 0.500000
vt 0.613545 0.500000
vt 0.375000 0.074954
vt 0.625000 0.074954
vn 0.0000 0.0000 1.0000
vn 0.0000 -1.0000 0.0000
vn 1.0000 0.0000 0.0000
vn 0.0000 0.0000 -1.0000
vn -0.4547 0.0000 0.8907
vn 0.4547 0.0000 0.8907
vn 0.0000 -0.5020 0.8649
vn 0.0000 0.5020 0.8649
vn 0.0000 1.0000 0.0000
vn -0.0502 0.0000 -0.9987
vn -0.1530 0.0000 -0.9882
vn -0.2632 0.0000 -0.9647
vn -0.3864 0.0000 -0.9223
vn -0.5282 0.0000 -0.8491
vn -0.6907 0.0000 -0.7232
vn -0.8597 0.0000 -0.5108
vn -0.9819 0.0000 -0.1894
vn 0.0000 -0.9859 -0.1673
vn 0.0000 -0.8863 -0.4632
vn 0.0000 -0.7356 -0.6774
vn 0.0000 -0.5775 -0.8164
vn 0.0000 -0.4301 -0.9028
vn 0.0000 -0.2963 -0.9551
vn 0.0000 -0.1734 -0.9848
vn 0.0000 -0.0571 -0.9984
vn 0.0000 0.9859 -0.1673
vn 0.0000 0.8863 -0.4632
vn 0.0000 0.7356 -0.6774
vn 0.0000 0.5775 -0.8164
vn 0.0000 0.4301 -0.9028
vn 0.0000 0.2963 -0.9551
vn 0.0000 0.1734 -0.9848
vn 0.0000 0.0571 -0.9984
vn 0.9819 0.0000 -0.1894
vn 0.8597 0.0000 -0.5108
vn 0.6907 0.0000 -0.7232
vn 0.5282 0.0000 -0.8491
vn 0.3864 0.0000 -0.9223
vn 0.2632 0.0000 -0.9647
vn 0.1530 0.0000 -0.9882
vn 0.0502 0.0000 -0.9987
vn -1.0000 0.0000 0.0000
usemtl None
s off
f 5/1/1 7/2/1 3/3/1 1/4/1
f 10/5/2 28/6/2 6/7/2 2/8/2
f 28/6/3 36/9/3 8/10/3 6/7/3
f 9/11/4 19/12/4 37/13/4 27/14/4
f 1/4/5 3/3/5 4/15/5 2/16/5
f 7/2/6 5/1/6 6/7/6 8/10/6
f 2/16/7 6/17/7 5/1/7 1/4/7
f 8/18/8 4/15/8 3/3/8 7/2/8
f 36/9/9 18/19/9 4/20/9 8/10/9
f 19/12/10 9/11/10 11/21/10 26/22/10
f 26/22/11 11/21/11 12/23/11 25/24/11
f 25/24/12 12/23/12 13/25/12 24/26/12
f 24/26/13 13/25/13 14/27/13 23/28/13
f 23/28/14 14/27/14 15/29/14 22/30/14
f 22/30/15 15/29/15 16/31/15 21/32/15
f 21/32/16 16/31/16 17/33/16 20/34/16
f 20/34/17 17/33/17 10/35/17 18/36/17
f 28/6/18 10/5/18 17/37/18 35/38/18
f 35/38/19 17/37/19 16/39/19 34/40/19
f 34/40/20 16/39/20 15/41/20 33/42/20
f 33/42/21 15/41/21 14/43/21 32/44/21
f 32/45/22 14/46/22 13/25/22 31/47/22
f 31/47/23 13/25/23 12/23/23 30/48/23
f 30/48/24 12/23/24 11/21/24 29/49/24
f 29/49/25 11/21/25 9/11/25 27/14/25
f 18/19/26 36/9/26 38/50/26 20/51/26
f 20/51/27 38/50/27 39/52/27 21/53/27
f 21/53/28 39/52/28 40/54/28 22/55/28
f 22/55/29 40/54/29 41/56/29 23/57/29
f 23/58/30 41/59/30 42/60/30 24/26/30
f 24/26/31 42/60/31 43/61/31 25/24/31
f 25/24/32 43/61/32 44/62/32 26/22/32
f 26/22/33 44/62/33 37/13/33 19/12/33
f 36/9/34 28/6/34 35/63/34 38/64/34
f 38/64/35 35/63/35 34/65/35 39/66/35
f 39/66/36 34/65/36 33/67/36 40/68/36
f 40/68/37 33/67/37 32/69/37 41/70/37
f 41/70/38 32/69/38 31/47/38 42/60/38
f 42/60/39 31/47/39 30/48/39 43/61/39
f 43/61/40 30/48/40 29/49/40 44/62/40
f 44/62/41 29/49/41 27/14/41 37/13/41
f 2/71/42 4/72/42 18/36/42 10/35/42
